<svg width="26" height="27" viewBox="0 0 26 27" fill="none" xmlns="http://www.w3.org/2000/svg">
<path d="M22.8689 8.14002L9.80674 22.2285C9.36866 22.701 8.6305 22.7289 8.158 22.2908C8.12411 22.2594 8.09212 22.2259 8.06219 22.1907L3.16457 16.4273C2.74733 15.9363 2.01107 15.8765 1.52007 16.2938C1.02908 16.711 0.969282 17.4473 1.38652 17.9383L6.28413 23.7017C6.37392 23.8073 6.46991 23.9076 6.57158 24.0018C7.98907 25.3161 10.2036 25.2324 11.5178 23.8149L24.58 9.72644C25.0181 9.25394 24.9902 8.51578 24.5177 8.0777C24.0452 7.63962 23.307 7.66752 22.8689 8.14002Z" fill="#191847"/>
</svg>
