<svg width="16" height="16" viewBox="0 0 16 16" fill="none" xmlns="http://www.w3.org/2000/svg">
<path d="M7.99996 13.91L5.52869 15.2093C4.42879 15.7875 3.06838 15.3646 2.49013 14.2647C2.25987 13.8268 2.18041 13.3251 2.26406 12.8374L2.73603 10.0856L0.736726 8.13673C-0.153112 7.26936 -0.17132 5.84485 0.696058 4.95501C1.04145 4.60067 1.49402 4.37008 1.98371 4.29892L4.74667 3.89744L5.98231 1.39377C6.53226 0.279446 7.88142 -0.178066 8.99574 0.371884C9.43947 0.590877 9.79863 0.950039 10.0176 1.39377L11.2533 3.89744L14.0162 4.29892C15.246 4.47761 16.098 5.61936 15.9193 6.84909C15.8481 7.33877 15.6175 7.79134 15.2632 8.13673L13.2639 10.0856L13.7359 12.8374C13.9459 14.0621 13.1234 15.2253 11.8986 15.4353C11.4109 15.519 10.9092 15.4395 10.4712 15.2093L7.99996 13.91ZM7.65096 12.3989C7.86945 12.284 8.13048 12.284 8.34897 12.3989L11.1692 13.8816C11.3152 13.9583 11.4825 13.9848 11.645 13.9569C12.0533 13.8869 12.3275 13.4992 12.2575 13.0909L11.7188 9.95051C11.6771 9.70722 11.7578 9.45897 11.9345 9.28667L14.2162 7.0626C14.3343 6.94747 14.4112 6.79662 14.4349 6.63339C14.4944 6.22348 14.2104 5.8429 13.8005 5.78333L10.6474 5.32515C10.4031 5.28965 10.1919 5.13623 10.0827 4.91487L8.67252 2.05762C8.59952 1.90971 8.4798 1.78999 8.33189 1.71699C7.96045 1.53367 7.51073 1.68618 7.32741 2.05762L5.91727 4.91487C5.80803 5.13623 5.59685 5.28965 5.35257 5.32515L2.1994 5.78333C2.03618 5.80705 1.88532 5.88392 1.77019 6.00203C1.48106 6.29864 1.48713 6.77348 1.78374 7.0626L4.0654 9.28667C4.24216 9.45897 4.32282 9.70722 4.28109 9.95051L3.74247 13.0909C3.71459 13.2535 3.74107 13.4207 3.81783 13.5667C4.01058 13.9334 4.46405 14.0743 4.83068 13.8816L7.65096 12.3989Z" fill="#191847"/>
</svg>
